HIERARCHY
ROOT joint_Root
{
	OFFSET 0.0 0.0 0.0
	CHANNELS 6 Xposition Yposition Zposition Zrotation Xrotation Yrotation 
	JOINT Hips
	{
		OFFSET -0.726466 93.3139 -2.00062
		CHANNELS 6 Xposition Yposition Zposition Zrotation Xrotation Yrotation 
		JOINT Spine
		{
			OFFSET 15.7357 0.0 0.0
			CHANNELS 6 Xposition Yposition Zposition Zrotation Xrotation Yrotation 
			JOINT Chest
			{
				OFFSET 8.98455 -0.406207 0.0
				CHANNELS 6 Xposition Yposition Zposition Zrotation Xrotation Yrotation 
				JOINT Neck
				{
					OFFSET 16.3773 0.0 0.0
					CHANNELS 6 Xposition Yposition Zposition Zrotation Xrotation Yrotation 
					JOINT Head
					{
						OFFSET 6.45672 0.0 0.0
						CHANNELS 6 Xposition Yposition Zposition Zrotation Xrotation Yrotation 
						End Site
						{
							OFFSET 0.0 0.0 0.0
						}
					}
				}
				JOINT Shoulder_L
				{
					OFFSET 12.9942 -0.242716 4.98039
					CHANNELS 6 Xposition Yposition Zposition Zrotation Xrotation Yrotation 
					JOINT UpperArm_L
					{
						OFFSET 5.34809 0.0 0.0
						CHANNELS 6 Xposition Yposition Zposition Zrotation Xrotation Yrotation 
						JOINT LowerArm_L
						{
							OFFSET 24.3286 1.87007e-05 0.0
							CHANNELS 6 Xposition Yposition Zposition Zrotation Xrotation Yrotation 
							JOINT Hand_L
							{
								OFFSET 22.2916 0.0 0.0
								CHANNELS 6 Xposition Yposition Zposition Zrotation Xrotation Yrotation 
								End Site
								{
									OFFSET 0.0 0.0 0.0
								}
							}
						}
					}
				}
				JOINT Shoulder_R
				{
					OFFSET 12.9945 -0.242716 -4.98039
					CHANNELS 6 Xposition Yposition Zposition Zrotation Xrotation Yrotation 
					JOINT UpperArm_R
					{
						OFFSET -5.34813 0.0 0.0
						CHANNELS 6 Xposition Yposition Zposition Zrotation Xrotation Yrotation 
						JOINT LowerArm_R
						{
							OFFSET -24.3289 0.000322201 0.0
							CHANNELS 6 Xposition Yposition Zposition Zrotation Xrotation Yrotation 
							JOINT Hand_R
							{
								OFFSET -22.2915 -0.000108084 0.0
								CHANNELS 6 Xposition Yposition Zposition Zrotation Xrotation Yrotation 
								End Site
								{
									OFFSET 0.0 0.0 0.0
								}
							}
						}
					}
				}
			}
		}
		JOINT UpperLeg_L
		{
			OFFSET -2.19248 -6.46944 0.0
			CHANNELS 6 Xposition Yposition Zposition Zrotation Xrotation Yrotation 
			JOINT LowerLeg_L
			{
				OFFSET 39.0811 0.0 -1.23785e-05
				CHANNELS 6 Xposition Yposition Zposition Zrotation Xrotation Yrotation 
				JOINT Foot_L
				{
					OFFSET 40.9854 0.0 -1.26872e-05
					CHANNELS 6 Xposition Yposition Zposition Zrotation Xrotation Yrotation 
					JOINT Toes_L
					{
						OFFSET 11.7543 0.0 0.0
						CHANNELS 6 Xposition Yposition Zposition Zrotation Xrotation Yrotation 
						End Site
						{
							OFFSET 0.0 0.0 0.0
						}
					}
				}
			}
		}
		JOINT UpperLeg_R
		{
			OFFSET -2.19251 6.46944 0.0
			CHANNELS 6 Xposition Yposition Zposition Zrotation Xrotation Yrotation 
			JOINT LowerLeg_R
			{
				OFFSET -39.0811 -0.00228153 -0.0401928
				CHANNELS 6 Xposition Yposition Zposition Zrotation Xrotation Yrotation 
				JOINT Foot_R
				{
					OFFSET -40.9854 0.0 0.0
					CHANNELS 6 Xposition Yposition Zposition Zrotation Xrotation Yrotation 
					JOINT Toes_R
					{
						OFFSET -11.7543 0.0 0.0
						CHANNELS 6 Xposition Yposition Zposition Zrotation Xrotation Yrotation 
						End Site
						{
							OFFSET 0.0 0.0 0.0
						}
					}
				}
			}
		}
	}
}
MOTION
Frames:	7
Frame Time:	0.0333333
0.000000 0.000000 0.000000 0.000000 0.000000 -0.000000 -1.312760 91.956000 -1.598640 87.434900 -1.477850 4.080540 15.735700 0.000005 -0.000001 88.237200 84.513900 -87.540800 8.984550 -0.406207 -0.000000 3.203600 -0.364870 1.401690 16.377300 -0.000001 -0.000001 2.357620 -3.676140 0.884378 6.456720 -0.000001 -0.000000 -0.509281 -2.445810 -8.052310 12.994200 -0.242716 4.980390 -90.224800 0.756656 -73.453000 5.348090 -0.000007 -0.000001 -62.808400 46.956000 -17.103700 24.328600 0.000019 0.000005 3.874730 7.743190 -26.688200 22.291600 -0.000001 0.000005 5.604750 5.568410 -9.607180 12.994500 -0.242716 -4.980390 88.080500 5.653660 -71.211800 -5.348130 -0.000001 -0.000004 -64.156700 33.942000 -17.300600 -24.328900 0.000322 -0.000009 0.585187 1.711200 -18.913900 -22.291500 -0.000108 -0.000004 4.419820 5.544330 -8.441180 -2.192480 -6.469440 -0.000000 -168.364000 -15.104900 -1.863960 39.081100 -0.000007 -0.000012 -0.200279 0.488388 22.297900 40.985400 -0.000006 -0.000013 -5.974780 3.621700 -64.455200 11.754300 -0.000000 0.000003 -0.000045 -0.000515 -16.597600 -2.192510 6.469440 -0.000001 174.828000 19.829300 179.844000 -39.081100 -0.002282 -0.040193 -0.052918 0.153836 20.081300 -40.985400 0.000008 0.000006 -2.987230 2.901800 -63.893700 -11.754300 -0.000006 -0.000006 -0.006157 -0.072256 -19.513900
0.000000 0.000000 0.000000 0.000000 0.000000 -0.000000 -1.259240 91.952000 -1.598110 87.494700 -1.462340 4.187410 15.735700 0.000005 -0.000001 88.114400 84.440900 -87.472100 8.984550 -0.406207 -0.000000 3.348760 -0.390155 1.294720 16.377300 -0.000001 -0.000001 2.339720 -3.582920 0.759635 6.456720 -0.000001 -0.000000 -0.468912 -2.270320 -8.570720 12.994200 -0.242716 4.980390 -90.209800 0.706270 -73.456100 5.348090 -0.000007 -0.000001 -61.512800 48.634700 -17.645900 24.328600 0.000019 0.000005 4.282240 8.106040 -27.968900 22.291600 -0.000001 0.000005 5.643090 5.576340 -10.016600 12.994500 -0.242716 -4.980390 88.046900 5.750440 -71.204300 -5.348130 -0.000001 -0.000004 -63.818300 32.135900 -17.411300 -24.328900 0.000322 -0.000009 0.403139 1.151120 -19.351500 -22.291500 -0.000108 -0.000004 4.338970 5.544320 -8.440790 -2.192480 -6.469440 -0.000000 -168.436000 -15.039800 -1.760310 39.081100 -0.000007 -0.000012 -0.198944 0.484832 22.310400 40.985400 -0.000006 -0.000013 -5.935650 3.638430 -64.482500 11.754300 -0.000000 0.000003 -0.000039 -0.000456 -16.595300 -2.192510 6.469440 -0.000001 174.687000 19.869100 179.929000 -39.081100 -0.002282 -0.040193 -0.052820 0.153043 20.144700 -40.985400 0.000008 0.000006 -2.988590 2.932230 -63.913900 -11.754300 -0.000006 -0.000006 -0.006319 -0.073705 -19.573000
0.000000 0.000000 0.000000 0.000000 0.000000 -0.000000 -1.192820 91.951500 -1.603420 87.514100 -1.525150 4.258220 15.735700 0.000005 -0.000001 88.024000 84.373000 -87.404900 8.984550 -0.406207 -0.000000 3.483840 -0.410694 1.249470 16.377300 -0.000001 -0.000001 2.351880 -3.411150 0.580163 6.456720 -0.000001 -0.000000 -0.495200 -1.991050 -9.112070 12.994200 -0.242716 4.980390 -90.202400 0.680112 -73.425300 5.348090 -0.000007 -0.000001 -59.297900 51.177300 -18.489100 24.328600 0.000019 0.000005 4.552430 7.816270 -30.347800 22.291600 -0.000001 0.000005 5.981110 5.591200 -10.823700 12.994500 -0.242716 -4.980390 88.029600 5.753360 -71.058700 -5.348130 -0.000001 -0.000004 -63.255200 29.507900 -17.780700 -24.328900 0.000322 -0.000009 0.339178 0.925817 -20.182400 -22.291500 -0.000108 -0.000004 4.391590 5.541890 -8.329070 -2.192480 -6.469440 -0.000000 -168.483000 -15.061500 -1.695600 39.081100 -0.000007 -0.000012 -0.199833 0.486015 22.351100 40.985400 -0.000006 -0.000013 -5.898390 3.578350 -64.520800 11.754300 -0.000000 0.000003 -0.000032 -0.000385 -16.592600 -2.192510 6.469440 -0.000001 174.610000 19.813900 179.978000 -39.081100 -0.002282 -0.040193 -0.050263 0.145915 20.164700 -40.985400 0.000008 0.000006 -2.929910 2.956240 -63.906600 -11.754300 -0.000006 -0.000006 -0.006185 -0.072504 -19.524000
0.000000 0.000000 0.000000 0.000000 0.000000 -0.000000 -1.111640 91.941800 -1.612050 87.546300 -1.572010 4.304250 15.735700 0.000005 -0.000001 87.629800 84.308600 -87.043600 8.984550 -0.406207 -0.000000 3.609940 -0.491412 1.186580 16.377300 -0.000001 -0.000001 2.410540 -3.211120 0.478923 6.456720 -0.000001 -0.000000 -0.572091 -1.660780 -9.602530 12.994200 -0.242716 4.980390 -90.197400 0.659707 -73.343200 5.348090 -0.000007 -0.000001 -56.194000 54.037300 -19.602600 24.328600 0.000019 0.000005 4.798890 7.151740 -33.994600 22.291600 -0.000001 0.000005 6.461270 5.613720 -12.194200 12.994500 -0.242716 -4.980390 88.013900 5.732410 -70.853400 -5.348130 -0.000001 -0.000004 -62.244800 26.349400 -18.502400 -24.328900 0.000322 -0.000009 0.208888 0.533800 -21.476700 -22.291500 -0.000108 -0.000004 5.081210 5.535670 -8.047620 -2.192480 -6.469440 -0.000000 -168.553000 -15.076500 -1.695030 39.081100 -0.000007 -0.000012 -0.201506 0.487578 22.454600 40.985400 -0.000006 -0.000013 -5.849460 3.550280 -64.587600 11.754300 -0.000000 0.000003 -0.000035 -0.000413 -16.593700 -2.192510 6.469440 -0.000001 174.498000 19.735100 179.990000 -39.081100 -0.002282 -0.040193 -0.052917 0.152879 20.196600 -40.985400 0.000008 0.000006 -3.081110 2.985270 -63.880200 -11.754300 -0.000006 -0.000006 -0.006255 -0.073138 -19.549900
0.000000 0.000000 0.000000 0.000000 0.000000 -0.000000 -1.012080 91.954900 -1.633560 87.597600 -1.697380 4.377260 15.735700 0.000005 -0.000001 87.359600 84.246700 -86.829100 8.984550 -0.406207 -0.000000 3.731180 -0.548048 1.077610 16.377300 -0.000001 -0.000001 2.557120 -3.054650 0.421157 6.456720 -0.000001 -0.000000 -0.651858 -1.326800 -9.949640 12.994200 -0.242716 4.980390 -90.192600 0.638333 -73.209800 5.348090 -0.000007 -0.000001 -52.832900 56.409200 -20.385200 24.328600 0.000019 0.000005 5.259770 6.545560 -38.924200 22.291600 -0.000001 0.000005 7.111130 5.634030 -13.626100 12.994500 -0.242716 -4.980390 88.018700 5.627380 -70.568100 -5.348130 -0.000001 -0.000004 -60.662400 23.016000 -19.736600 -24.328900 0.000322 -0.000009 -0.079167 -0.184495 -22.899400 -22.291500 -0.000108 -0.000004 5.925390 5.533880 -7.966350 -2.192480 -6.469440 -0.000000 -168.648000 -15.209000 -1.577080 39.081100 -0.000007 -0.000012 -0.198697 0.481876 22.408600 40.985400 -0.000006 -0.000013 -5.773950 3.534980 -64.580600 11.754300 -0.000000 0.000003 -0.000033 -0.000395 -16.593000 -2.192510 6.469440 -0.000001 174.392000 19.599100 -179.952000 -39.081100 -0.002282 -0.040193 -0.047847 0.139423 20.153000 -40.985400 0.000008 0.000006 -2.981920 2.987720 -63.826600 -11.754300 -0.000006 -0.000006 -0.006151 -0.072201 -19.511700
0.000000 0.000000 0.000000 0.000000 0.000000 -0.000000 -0.901836 91.946500 -1.658380 87.606600 -1.874110 4.394370 15.735700 0.000005 -0.000001 87.125300 84.222500 -86.653900 8.984550 -0.406207 -0.000000 3.777130 -0.595123 0.961353 16.377300 -0.000001 -0.000001 2.757450 -2.893600 0.419659 6.456720 -0.000001 -0.000000 -0.577579 -1.133240 -10.163000 12.994200 -0.242716 4.980390 -90.125600 0.411152 -73.013400 5.348090 -0.000007 -0.000001 -48.951200 58.692700 -21.447300 24.328600 0.000019 0.000005 5.677450 5.817950 -44.443100 22.291600 -0.000001 0.000005 7.898740 5.650680 -15.065300 12.994500 -0.242716 -4.980390 88.086000 5.387540 -70.408100 -5.348130 -0.000001 -0.000004 -58.973900 18.877900 -21.259800 -24.328900 0.000322 -0.000009 -0.163784 -0.360335 -24.294300 -22.291500 -0.000108 -0.000004 6.807770 5.529040 -7.756110 -2.192480 -6.469440 -0.000000 -168.753000 -15.185600 -1.617720 39.081100 -0.000007 -0.000012 -0.198785 0.478452 22.562000 40.985400 -0.000006 -0.000013 -5.726720 3.315900 -64.693700 11.754300 -0.000000 0.000003 -0.000038 -0.000445 -16.594900 -2.192510 6.469440 -0.000001 174.313000 19.490400 179.995000 -39.081100 -0.002282 -0.040193 -0.048715 0.141556 20.183500 -40.985400 0.000008 0.000006 -3.081740 3.065460 -63.768500 -11.754300 -0.000006 -0.000006 -0.006272 -0.073287 -19.556000
0.000000 0.000000 0.000000 0.000000 0.000000 -0.000000 -0.771707 91.955900 -1.674110 87.640700 -2.138690 4.440020 15.735700 0.000005 -0.000001 87.292800 84.197200 -86.896800 8.984550 -0.406207 -0.000000 3.828820 -0.561004 0.809823 16.377300 -0.000001 -0.000001 2.943100 -2.778010 0.402965 6.456720 -0.000001 -0.000000 -0.458039 -1.071630 -10.240100 12.994200 -0.242716 4.980390 -90.016200 0.052441 -72.784500 5.348090 -0.000007 -0.000001 -44.329800 60.831900 -22.982600 24.328600 0.000019 0.000005 6.148300 5.107430 -50.432500 22.291600 -0.000001 0.000005 8.786010 5.664550 -16.587100 12.994500 -0.242716 -4.980390 88.153200 5.141420 -70.211100 -5.348130 -0.000001 -0.000004 -56.935300 14.278200 -23.229800 -24.328900 0.000322 -0.000009 -0.113476 -0.234875 -25.569300 -22.291500 -0.000108 -0.000004 8.108630 5.516620 -7.220950 -2.192480 -6.469440 -0.000000 -168.839000 -15.369700 -1.497980 39.081100 -0.000007 -0.000012 -0.198714 0.478667 22.545600 40.985400 -0.000006 -0.000013 -5.653400 3.248880 -64.733900 11.754300 -0.000000 0.000003 -0.000037 -0.000438 -16.594600 -2.192510 6.469440 -0.000001 174.213000 19.342800 179.996000 -39.081100 -0.002282 -0.040193 -0.044748 0.131026 20.146700 -40.985400 0.000008 0.000006 -3.003800 3.160580 -63.685700 -11.754300 -0.000006 -0.000006 -0.006190 -0.072548 -19.525800
